# xmcd
#
# Track frame offsets:
#	150
#	15144
#	31715
#	49346
#	62847
#	85004
#	106757
#	124339
#	142654
#	160454
#	178146
#	200197
#
# Disc length: 2892 seconds
#
# Revision: 2
# Processed by: cddbd v1.5.2PL0 Copyright (c) Steve Scherf et al.
# Submitted via: audiograbber 1.83.01
#
DISCID=990b4a0c
DTITLE=Lady Antebellum - We Owned The Night
DYEAR=2011
DGENRE=Country
TTITLE0=We Owned The Night
TTITLE1=Just a Kiss
TTITLE2=Dancin' Away With My Heart
TTITLE3=Friday Night
TTITLE4=When You Were Mine
TTITLE5=Cold As Stone
TTITLE6=Singing Me Home
TTITLE7=Wanted You More
TTITLE8=As You Turn Away
TTITLE9=Love I've Found In You
TTITLE10=Somewhere Love Remains
TTITLE11=Heart Of The World
EXTD=
EXTT0=
EXTT1=
EXTT2=
EXTT3=
EXTT4=
EXTT5=
EXTT6=
EXTT7=
EXTT8=
EXTT9=
EXTT10=
EXTT11=
PLAYORDER=
